<?xml version="1.0" encoding="UTF-8"?><svg id="Layer_1" xmlns="http://www.w3.org/2000/svg" xmlns:xlink="http://www.w3.org/1999/xlink" viewBox="0 0 41.29 41.29"><defs><style>.cls-1{fill:none;}.cls-2{clip-path:url(#clippath);}.cls-3{fill:#7fc686;}.cls-4{fill:#7fc687;}.cls-5{fill:#7ec686;}.cls-6{fill:#80c587;}.cls-7{fill:#80c588;}.cls-8{fill:#8ac291;}.cls-9{fill:#8ac290;}.cls-10{fill:#83c48a;}.cls-11{fill:#91c097;}.cls-12{fill:#89c290;}.cls-13{fill:#89c28f;}.cls-14{fill:#8fc196;}.cls-15{fill:#8fc195;}.cls-16{fill:#92c098;}.cls-17{fill:#90c097;}.cls-18{fill:#90c196;}.cls-19{fill:#8ec194;}.cls-20{fill:#8ec195;}.cls-21{fill:#8dc193;}.cls-22{fill:#8dc194;}.cls-23{fill:#8cc292;}.cls-24{fill:#8cc193;}.cls-25{fill:#8bc291;}.cls-26{fill:#8bc292;}.cls-27{fill:#84c48b;}.cls-28{fill:#84c48a;}.cls-29{fill:#95bf9b;}.cls-30{fill:#94c09a;}.cls-31{fill:#93c099;}.cls-32{fill:#94bf9a;}.cls-33{fill:#86c38c;}.cls-34{fill:#86c38d;}.cls-35{fill:#88c38e;}.cls-36{fill:#87c38e;}.cls-37{fill:#87c38d;}.cls-38{fill:#85c38b;}.cls-39{fill:#85c38c;}.cls-40{fill:#82c489;}.cls-41{fill:#81c588;}</style><clipPath id="clippath"><path class="cls-1" d="M0,20.65C0,9.24,9.24,0,20.65,0s20.65,9.24,20.65,20.65-9.24,20.65-20.65,20.65h0C9.25,41.3,0,32.05,0,20.65H0Zm20.65,9.03c1.07,0,1.93-.86,1.94-1.93h0v-5.17h5.16c1.07-.02,1.92-.91,1.89-1.98-.02-1.03-.86-1.87-1.89-1.89h-5.16v-5.16c.02-1.07-.82-1.96-1.89-1.98-1.07-.02-1.96,.82-1.98,1.89,0,.03,0,.06,0,.09v5.16h-5.16c-1.07-.02-1.96,.82-1.98,1.89-.02,1.07,.82,1.96,1.89,1.98,.03,0,.06,0,.09,0h5.16v5.16c0,1.07,.86,1.93,1.93,1.93h0Z"/></clipPath></defs><g id="circle-plus-solid"><g class="cls-2"><rect class="cls-39" x="11.55" y="11.55" width="18.11" height=".94"/><rect class="cls-33" x="11.55" y="12.48" width="18.11" height=".96"/><rect class="cls-34" x="11.55" y="13.44" width="18.11" height=".96"/><rect class="cls-37" x="11.55" y="14.4" width="18.11" height=".96"/><rect class="cls-36" x="11.55" y="15.37" width="18.11" height=".96"/><rect class="cls-35" x="11.55" y="16.33" width="18.11" height=".96"/><rect class="cls-13" x="11.55" y="17.29" width="18.11" height=".96"/><rect class="cls-12" x="11.55" y="18.25" width="18.11" height=".96"/><rect class="cls-9" x="11.55" y="19.21" width="18.11" height=".96"/><rect class="cls-8" x="11.55" y="20.17" width="18.11" height=".96"/><rect class="cls-25" x="11.55" y="21.13" width="18.11" height=".96"/><rect class="cls-26" x="11.55" y="22.09" width="18.11" height=".96"/><rect class="cls-23" x="11.55" y="23.05" width="18.11" height=".96"/><rect class="cls-24" x="11.55" y="24.01" width="18.11" height=".96"/><rect class="cls-21" x="11.55" y="24.97" width="18.11" height=".96"/><rect class="cls-22" x="11.55" y="25.93" width="18.11" height=".96"/><rect class="cls-19" x="11.55" y="26.89" width="18.11" height=".96"/><rect class="cls-20" x="11.55" y="27.85" width="18.11" height=".96"/><rect class="cls-15" x="11.55" y="28.81" width="18.11" height=".87"/><rect class="cls-5" x="0" y="0" width="41.29" height=".96"/><rect class="cls-3" x="0" y=".96" width="41.29" height=".96"/><rect class="cls-4" x="0" y="1.92" width="41.29" height=".96"/><rect class="cls-6" x="0" y="2.88" width="41.29" height=".96"/><rect class="cls-7" x="0" y="3.84" width="41.29" height=".96"/><rect class="cls-41" x="0" y="4.8" width="41.29" height=".96"/><rect class="cls-40" x="0" y="5.76" width="41.29" height=".96"/><rect class="cls-40" x="0" y="6.72" width="41.29" height=".96"/><rect class="cls-10" x="0" y="7.68" width="41.29" height=".96"/><rect class="cls-28" x="0" y="8.64" width="41.29" height=".96"/><rect class="cls-27" x="0" y="9.6" width="41.29" height=".96"/><rect class="cls-38" x="0" y="10.56" width="41.29" height=".96"/><rect class="cls-39" x="0" y="11.52" width="41.29" height=".96"/><rect class="cls-33" x="0" y="12.48" width="41.29" height=".96"/><rect class="cls-34" x="0" y="13.44" width="41.29" height=".96"/><rect class="cls-37" x="0" y="14.4" width="41.29" height=".96"/><rect class="cls-36" x="0" y="15.37" width="41.29" height=".96"/><rect class="cls-35" x="0" y="16.33" width="41.29" height=".96"/><rect class="cls-13" x="0" y="17.29" width="41.29" height=".96"/><rect class="cls-12" x="0" y="18.25" width="41.29" height=".96"/><rect class="cls-9" x="0" y="19.21" width="41.29" height=".96"/><rect class="cls-8" x="0" y="20.17" width="41.29" height=".96"/><rect class="cls-25" x="0" y="21.13" width="41.29" height=".96"/><rect class="cls-26" x="0" y="22.09" width="41.29" height=".96"/><rect class="cls-23" x="0" y="23.05" width="41.29" height=".96"/><rect class="cls-24" x="0" y="24.01" width="41.29" height=".96"/><rect class="cls-21" x="0" y="24.97" width="41.29" height=".96"/><rect class="cls-22" x="0" y="25.93" width="41.29" height=".96"/><rect class="cls-19" x="0" y="26.89" width="41.29" height=".96"/><rect class="cls-20" x="0" y="27.85" width="41.29" height=".96"/><rect class="cls-15" x="0" y="28.81" width="41.29" height=".96"/><rect class="cls-14" x="0" y="29.77" width="41.29" height=".96"/><rect class="cls-18" x="0" y="30.73" width="41.29" height=".96"/><rect class="cls-17" x="0" y="31.69" width="41.29" height=".96"/><rect class="cls-11" x="0" y="32.65" width="41.29" height=".96"/><rect class="cls-16" x="0" y="33.61" width="41.29" height=".96"/><rect class="cls-16" x="0" y="34.57" width="41.29" height=".96"/><rect class="cls-31" x="0" y="35.53" width="41.29" height=".96"/><rect class="cls-31" x="0" y="36.49" width="41.29" height=".96"/><rect class="cls-30" x="0" y="37.45" width="41.29" height=".96"/><rect class="cls-32" x="0" y="38.41" width="41.29" height=".96"/><rect class="cls-29" x="0" y="39.37" width="41.29" height=".96"/><rect class="cls-29" x="0" y="40.33" width="41.29" height=".96"/></g></g></svg>