<?xml version="1.0" encoding="UTF-8"?><svg id="Layer_1" xmlns="http://www.w3.org/2000/svg" xmlns:xlink="http://www.w3.org/1999/xlink" viewBox="0 0 25.14 22.08"><defs><style>.cls-1{fill:none;}.cls-2{clip-path:url(#clippath);}.cls-3{fill:#949494;}</style><clipPath id="clippath"><rect class="cls-1" width="25.14" height="22.08"/></clipPath></defs><g id="Group_53" transform="translate(0)"><g class="cls-2"><g id="Group_52" transform="translate(0 0)"><path id="Path_54" class="cls-3" d="M19.9,22.08H5.24c-1.42,0-2.57-1.15-2.58-2.58V10.98H1.25c-.69,0-1.25-.56-1.25-1.25,0-.39,.18-.76,.5-1L11.83,.25c.44-.33,1.05-.33,1.49,0l11.33,8.49c.55,.41,.66,1.19,.25,1.74-.24,.31-.61,.5-1,.5h-1.41v8.52c0,1.42-1.16,2.58-2.58,2.58M2.26,9.4h1.98v10.1c0,.55,.44,.99,.99,.99h14.66c.55,0,.99-.44,.99-.99V9.4h1.98L12.57,1.67,2.26,9.4Z"/><path id="Path_55" class="cls-3" d="M14.4,22.08h-3.65c-.96,0-1.74-.78-1.74-1.74v-5.24c0-.96,.78-1.74,1.74-1.74h3.66c.96,0,1.74,.78,1.74,1.74v5.24c0,.96-.78,1.74-1.74,1.74m-3.66-7.13c-.09,0-.15,.07-.15,.15v5.24c0,.09,.07,.15,.15,.15h3.66c.09,0,.15-.07,.15-.15v-5.24c0-.09-.07-.15-.15-.15h-3.66Z"/></g></g></g></svg>