<svg xmlns="http://www.w3.org/2000/svg" width="22.747" height="22.742" viewBox="0 0 22.747 22.742"><g transform="translate(0 0)"><path d="M110.865,105.5a7.065,7.065,0,1,0,7.065,7.065A7.075,7.075,0,0,0,110.865,105.5Zm0,12.232a5.171,5.171,0,1,1,5.171-5.171A5.179,5.179,0,0,1,110.865,117.732Z" transform="translate(-99.492 -101.113)" fill="#ffc85a"/><path d="M236.547,13.962a.945.945,0,0,0,.947-.947V11.947a.947.947,0,1,0-1.894,0v1.068A.945.945,0,0,0,236.547,13.962Z" transform="translate(-225.174 -11)" fill="#ffc85a"/><path d="M236.547,437.2a.945.945,0,0,0-.947.947v1.063a.947.947,0,0,0,1.894,0v-1.063A.948.948,0,0,0,236.547,437.2Z" transform="translate(-225.174 -417.415)" fill="#ffc85a"/><path d="M439.215,235.6h-1.068a.947.947,0,0,0,0,1.894h1.068a.947.947,0,0,0,0-1.894Z" transform="translate(-417.415 -225.174)" fill="#ffc85a"/><path d="M13.015,235.6H11.947a.947.947,0,1,0,0,1.894H13.01a.947.947,0,0,0,0-1.894Z" transform="translate(-11 -225.174)" fill="#ffc85a"/><path d="M379.135,77.079l-.757.752a.949.949,0,0,0,1.342,1.342l.752-.752a.947.947,0,0,0-1.337-1.342Z" transform="translate(-361.059 -73.745)" fill="#ffc85a"/><path d="M77.831,378.414l-.752.752a.949.949,0,1,0,1.342,1.342l.752-.752a.949.949,0,1,0-1.342-1.342Z" transform="translate(-73.745 -361.094)" fill="#ffc85a"/><path d="M379.72,378.379a.949.949,0,0,0-1.342,1.342l.752.752a.949.949,0,0,0,1.342-1.342Z" transform="translate(-361.059 -361.059)" fill="#ffc85a"/><path d="M77.831,79.172a.949.949,0,0,0,1.342-1.342l-.752-.752a.949.949,0,1,0-1.342,1.342Z" transform="translate(-73.745 -73.745)" fill="#ffc85a"/></g></svg>