<?xml version="1.0" encoding="UTF-8"?><svg id="Layer_1" xmlns="http://www.w3.org/2000/svg" xmlns:xlink="http://www.w3.org/1999/xlink" viewBox="0 0 240.11 34"><defs><style>.cls-1{fill:none;}.cls-2{clip-path:url(#clippath);}.cls-3{fill:#fff;}.cls-4{fill:#7ca982;}</style><clipPath id="clippath"><rect class="cls-1" width="34" height="34"/></clipPath></defs><g id="Layer_2-2"><g id="Group_101"><g id="Logo"><g class="cls-2"><g id="Group_1"><g id="Path_1"><path class="cls-4" d="M33.84,17c0,9.3-7.54,16.84-16.84,16.84S.16,26.3,.16,17c0-9.3,7.54-16.84,16.84-16.84,9.3,0,16.84,7.54,16.84,16.84h0"/></g><g id="Path_2"><path class="cls-3" d="M17.64,33.27s-13.11-4.83-7.18-15.33c5.54-9.72,5.82-12.85,5.82-16.87,0,0,20.69,24.53,1.36,32.2"/></g><g id="Path_3"><path class="cls-4" d="M16.89,33.44s3.86-14.11,1-26.58c0,0,5.14,9.43,.45,26.88l-1.45-.3Z"/></g></g></g></g></g></g><g><path d="M46.46,6.33c4.62,0,7.68,2.28,7.68,6.69s-3.06,6.66-7.68,6.66h-4.02v7.41h-4.98V6.33h9Zm-4.05,9h4.14c1.71,0,2.88-.69,2.88-2.28s-1.17-2.22-2.88-2.22h-4.14v4.5Z"/><path d="M64.19,6.33V22.47h9.57v4.62h-14.55V6.33h4.98Z"/><path d="M89.51,6.33l7.56,20.76h-5.28l-1.23-3.66h-7.38l-1.2,3.66h-5.28l7.5-20.76h5.31Zm-4.86,12.72h4.41l-2.22-6.57-2.19,6.57Z"/><path d="M106.34,6.33l7.08,11.49V6.33h4.98V27.08h-4.53l-7.53-11.46v11.46h-4.98V6.33h4.98Z"/><path d="M139.31,6.33v4.62h-5.79V27.08h-4.98V10.95h-5.85V6.33h16.62Z"/><path d="M150.41,6.33c6.42,0,11.43,3.93,11.43,10.32s-5.07,10.44-11.43,10.44h-6.48V6.33h6.48Zm-1.44,16.17h1.47c3.51,0,6.36-2.04,6.36-5.79s-2.85-5.76-6.36-5.76h-1.47v11.55Z"/><path d="M172.67,6.33V27.08h-5.01V6.33h5.01Z"/><path d="M189.77,6.33l7.56,20.76h-5.28l-1.23-3.66h-7.38l-1.2,3.66h-5.28l7.5-20.76h5.31Zm-4.86,12.72h4.41l-2.22-6.57-2.19,6.57Z"/><path d="M210.41,6.33c4.59,0,7.68,2.22,7.68,6.63,0,3.03-1.44,5.01-3.84,5.94l4.89,8.19h-5.64l-4.26-7.53h-2.64v7.53h-4.98V6.33h8.79Zm-3.84,9h3.93c1.68,0,2.85-.69,2.85-2.28s-1.17-2.22-2.85-2.22h-3.93v4.5Z"/><path d="M225.98,6.33l4.29,8.7,4.32-8.7h5.52l-7.44,13.68v7.08h-4.95v-7.11l-7.47-13.65h5.73Z"/></g></svg>