<svg version="1.1" id="Layer_1" xmlns="http://www.w3.org/2000/svg" x="0" y="0" viewBox="0 0 512 512" style="enable-background:new 0 0 512 512" xml:space="preserve"><style>.st0{fill:#ffc85a}.st1{fill:#b2b1b1}.st2{fill:none}</style><path class="st0" d="M256 146.2v-40.7c-83.9 0-152.2 68.3-152.2 152.2S172.1 409.9 256 409.9V369c-61.4 0-111.4-50-111.4-111.4s50-111.4 111.4-111.4z"/><path class="st1" d="M276.4 457.6v22.9c0 11.3-9.1 20.4-20.4 20.4v-63.7c11.3 0 20.4 9.2 20.4 20.4zM408.2 257.7c0 83.9-68.3 152.2-152.2 152.2V369c61.4 0 111.4-50 111.4-111.4s-50-111.4-111.4-111.4v-40.7c83.9 0 152.2 68.2 152.2 152.2zM429.2 400.3c8 8 8 20.9 0 28.9s-20.9 8-28.9 0L384.1 413c-8-8-8-20.9 0-28.9s20.9-8 28.9 0l16.2 16.2zM429.2 82.8c8 8 8 20.9 0 28.9L413 127.9c-8 8-20.9 8-28.9 0s-8-20.9 0-28.9l16.3-16.2c7.9-8 20.8-8 28.8 0zM501 256c0 11.3-9.1 20.4-20.4 20.4h-23c-11.3 0-20.4-9.1-20.4-20.4s9.1-20.4 20.4-20.4h23c11.3 0 20.4 9.1 20.4 20.4zM256 74.8V11c11.3 0 20.4 9.1 20.4 20.4v23c0 11.3-9.1 20.4-20.4 20.4z"/><path class="st0" d="M256 11v63.8c-11.3 0-20.4-9.1-20.4-20.4v-23c0-11.3 9.1-20.4 20.4-20.4zM256 437.2v63.7c-11.3 0-20.4-9.1-20.4-20.4v-22.9c0-11.3 9.1-20.4 20.4-20.4zM54.4 235.6h-23c-11.3 0-20.4 9.1-20.4 20.4s9.1 20.4 20.4 20.4h22.9c11.3 0 20.4-9.1 20.4-20.4.1-11.3-9.1-20.4-20.3-20.4zM99 384.1l-16.2 16.2c-8 8-8 20.9 0 28.9s20.9 8 28.9 0l16.2-16.2c8-8 8-20.9 0-28.9s-20.9-7.9-28.9 0zM99 127.9c8 8 20.9 8 28.9 0s8-20.9 0-28.9l-16.2-16.2c-8-8-20.9-8-28.9 0s-8 20.9 0 28.9L99 127.9z"/><path class="st2" d="M256 598v-97.1M256 437.2v-27.3M256 11V-4"/></svg>