<svg version="1.1" id="Layer_1" xmlns="http://www.w3.org/2000/svg" x="0" y="0" viewBox="0 0 512 512" style="enable-background:new 0 0 512 512" xml:space="preserve"><style>.st0{fill:#b1b1b1}</style><path class="st0" d="M256 105.5c-83.9 0-152.2 68.3-152.2 152.2S172.1 409.9 256 409.9s152.2-68.3 152.2-152.2c0-84-68.3-152.2-152.2-152.2zm0 263.5c-61.4 0-111.4-50-111.4-111.4s50-111.4 111.4-111.4 111.4 50 111.4 111.4S317.4 369 256 369zM256 74.8c11.3 0 20.4-9.1 20.4-20.4v-23c0-11.3-9.1-20.4-20.4-20.4-11.3 0-20.4 9.1-20.4 20.4v23c0 11.3 9.1 20.4 20.4 20.4zM256 437.2c-11.3 0-20.4 9.1-20.4 20.4v22.9c0 11.3 9.1 20.4 20.4 20.4s20.4-9.1 20.4-20.4v-22.9c0-11.2-9.1-20.4-20.4-20.4zM480.6 235.6h-23c-11.3 0-20.4 9.1-20.4 20.4s9.1 20.4 20.4 20.4h23c11.3 0 20.4-9.1 20.4-20.4 0-11.3-9.1-20.4-20.4-20.4zM54.4 235.6h-23c-11.3 0-20.4 9.1-20.4 20.4s9.1 20.4 20.4 20.4h22.9c11.3 0 20.4-9.1 20.4-20.4.1-11.3-9.1-20.4-20.3-20.4zM400.4 82.8 384.1 99c-8 8-8 20.9 0 28.9s20.9 8 28.9 0l16.2-16.2c8-8 8-20.9 0-28.9s-20.9-8-28.8 0zM99 384.1l-16.2 16.2c-8 8-8 20.9 0 28.9s20.9 8 28.9 0l16.2-16.2c8-8 8-20.9 0-28.9s-20.9-7.9-28.9 0zM413 384.1c-8-8-20.9-8-28.9 0s-8 20.9 0 28.9l16.2 16.2c8 8 20.9 8 28.9 0s8-20.9 0-28.9L413 384.1zM99 127.9c8 8 20.9 8 28.9 0s8-20.9 0-28.9l-16.2-16.2c-8-8-20.9-8-28.9 0s-8 20.9 0 28.9L99 127.9z"/><path style="fill:none;stroke:#de0000;stroke-width:18;stroke-linecap:round;stroke-miterlimit:10" d="M23 490 484.5 28.5"/></svg>