<?xml version="1.0" encoding="UTF-8"?><svg id="Layer_1" xmlns="http://www.w3.org/2000/svg" xmlns:xlink="http://www.w3.org/1999/xlink" viewBox="0 0 26.41 22.96"><defs><style>.cls-1{fill:none;}.cls-2{clip-path:url(#clippath);}.cls-3{fill:#949494;}</style><clipPath id="clippath"><rect class="cls-1" width="26.41" height="22.96"/></clipPath></defs><g id="Group_51" transform="translate(0)"><g class="cls-2"><g id="Group_50" transform="translate(0 0)"><path id="Path_51" class="cls-3" d="M16.3,12.58c-.89,0-1.78-.09-2.65-.31l-.53-.15-.1-.53c-.53-3.36,.64-6.76,3.12-9.08C18.78,.3,22.31-.52,25.66,.31l.53,.15,.1,.53c.53,3.36-.64,6.76-3.12,9.08-1.9,1.66-4.35,2.56-6.87,2.51m-1.61-1.86c2.6,.48,5.27-.23,7.29-1.94,1.91-1.77,2.89-4.33,2.64-6.93-2.6-.48-5.27,.23-7.29,1.94-1.91,1.77-2.89,4.33-2.64,6.93"/><path id="Path_52" class="cls-3" d="M10.07,15.26c-2.39,.04-4.73-.78-6.57-2.3C.94,10.71-.34,7.35,.07,3.98l.08-.53,.53-.16c3.32-.93,6.88-.22,9.59,1.9,2.55,2.24,3.83,5.61,3.42,8.98l-.08,.53-.53,.16c-.98,.27-2,.41-3.02,.4M1.78,4.8c-.16,2.6,.9,5.13,2.87,6.84,2.07,1.64,4.77,2.27,7.35,1.7,.16-2.6-.9-5.13-2.87-6.84h0c-2.07-1.64-4.77-2.27-7.35-1.7"/><path id="Path_53" class="cls-3" d="M13.17,22.96h1.25c.14,0,.26-.11,.26-.26V11.76c0-.14-.12-.26-.26-.26h-1.25c-.14,0-.26,.11-.26,.25h0v10.95c0,.14,.12,.26,.26,.26h0"/></g></g></g></svg>