<?xml version="1.0" encoding="UTF-8"?><svg id="Layer_1" xmlns="http://www.w3.org/2000/svg" viewBox="0 0 16.19 18.5"><defs><style>.cls-1{fill:#949494;}</style></defs><path id="user-regular" class="cls-1" d="M9.83,10.99h-3.47c-3.51,0-6.36,2.85-6.36,6.36H0c0,.64,.52,1.15,1.16,1.15H15.03c.64,0,1.16-.52,1.16-1.16,0-3.51-2.85-6.36-6.36-6.36ZM1.77,16.77c.29-2.31,2.26-4.05,4.59-4.05h3.47c2.33,0,4.3,1.74,4.59,4.05H1.77Zm6.33-7.52c2.55,0,4.62-2.08,4.62-4.63C12.72,2.07,10.64,0,8.09,0,5.54,0,3.47,2.07,3.47,4.63c0,2.55,2.07,4.63,4.63,4.63h0Zm0-7.52c1.6,0,2.89,1.3,2.88,2.9,0,1.6-1.3,2.89-2.9,2.88-1.59,0-2.88-1.3-2.88-2.89,0-1.6,1.3-2.89,2.9-2.89h0Z"/></svg>